<svg xmlns="http://www.w3.org/2000/svg" xmlns:xlink="http://www.w3.org/1999/xlink" width="1080" zoomAndPan="magnify" viewBox="0 0 810 809.999993" height="1080" preserveAspectRatio="xMidYMid meet" version="1.0"><defs><clipPath id="17cb53fa02"><path d="M 230 318 L 620 318 L 620 586 L 230 586 Z M 230 318 " clip-rule="nonzero"/></clipPath><clipPath id="500c8cb679"><path d="M 149.636719 71.015625 L 775.003906 205.917969 L 660.027344 738.90625 L 34.664062 604.007812 Z M 149.636719 71.015625 " clip-rule="nonzero"/></clipPath><clipPath id="a06a8e5c4d"><path d="M -396.769531 -46.851562 L 775.515625 206.027344 L 608.984375 978.019531 L -563.300781 725.140625 Z M -396.769531 -46.851562 " clip-rule="nonzero"/></clipPath><clipPath id="1257eb165f"><path d="M 139 238 L 411 238 L 411 434 L 139 434 Z M 139 238 " clip-rule="nonzero"/></clipPath><clipPath id="ec07067e3d"><path d="M 149.636719 71.015625 L 775.003906 205.917969 L 660.027344 738.90625 L 34.664062 604.007812 Z M 149.636719 71.015625 " clip-rule="nonzero"/></clipPath><clipPath id="d5bf314756"><path d="M -396.769531 -46.851562 L 775.515625 206.027344 L 608.984375 978.019531 L -563.300781 725.140625 Z M -396.769531 -46.851562 " clip-rule="nonzero"/></clipPath><clipPath id="6461238079"><path d="M 72 153 L 624 153 L 624 610 L 72 610 Z M 72 153 " clip-rule="nonzero"/></clipPath><clipPath id="87d16c50d9"><path d="M 149.636719 71.015625 L 775.003906 205.917969 L 660.027344 738.90625 L 34.664062 604.007812 Z M 149.636719 71.015625 " clip-rule="nonzero"/></clipPath><clipPath id="42e8fdca34"><path d="M -396.769531 -46.851562 L 775.515625 206.027344 L 608.984375 978.019531 L -563.300781 725.140625 Z M -396.769531 -46.851562 " clip-rule="nonzero"/></clipPath><clipPath id="041c7c894f"><path d="M 533 298 L 638 298 L 638 392 L 533 392 Z M 533 298 " clip-rule="nonzero"/></clipPath><clipPath id="d8ff881813"><path d="M 149.636719 71.015625 L 775.003906 205.917969 L 660.027344 738.90625 L 34.664062 604.007812 Z M 149.636719 71.015625 " clip-rule="nonzero"/></clipPath><clipPath id="25c523f2f1"><path d="M -396.769531 -46.851562 L 775.515625 206.027344 L 608.984375 978.019531 L -563.300781 725.140625 Z M -396.769531 -46.851562 " clip-rule="nonzero"/></clipPath><clipPath id="075191e363"><path d="M 584 367 L 639 367 L 639 527 L 584 527 Z M 584 367 " clip-rule="nonzero"/></clipPath><clipPath id="a399653ae6"><path d="M 149.636719 71.015625 L 775.003906 205.917969 L 660.027344 738.90625 L 34.664062 604.007812 Z M 149.636719 71.015625 " clip-rule="nonzero"/></clipPath><clipPath id="48ee9ac54f"><path d="M -396.769531 -46.851562 L 775.515625 206.027344 L 608.984375 978.019531 L -563.300781 725.140625 Z M -396.769531 -46.851562 " clip-rule="nonzero"/></clipPath><clipPath id="81811bfd81"><path d="M 574 332 L 741 332 L 741 591 L 574 591 Z M 574 332 " clip-rule="nonzero"/></clipPath><clipPath id="74afeeefa3"><path d="M 149.636719 71.015625 L 775.003906 205.917969 L 660.027344 738.90625 L 34.664062 604.007812 Z M 149.636719 71.015625 " clip-rule="nonzero"/></clipPath><clipPath id="b4b0a180d7"><path d="M -396.769531 -46.851562 L 775.515625 206.027344 L 608.984375 978.019531 L -563.300781 725.140625 Z M -396.769531 -46.851562 " clip-rule="nonzero"/></clipPath><clipPath id="113e8743f5"><path d="M 34 611 L 88 611 L 88 739 L 34 739 Z M 34 611 " clip-rule="nonzero"/></clipPath><clipPath id="b32babd443"><path d="M 149.636719 71.015625 L 775.003906 205.917969 L 660.027344 738.90625 L 34.664062 604.007812 Z M 149.636719 71.015625 " clip-rule="nonzero"/></clipPath><clipPath id="c9131b57c8"><path d="M -396.769531 -46.851562 L 775.515625 206.027344 L 608.984375 978.019531 L -563.300781 725.140625 Z M -396.769531 -46.851562 " clip-rule="nonzero"/></clipPath></defs><g clip-path="url(#17cb53fa02)"><g clip-path="url(#500c8cb679)"><g clip-path="url(#a06a8e5c4d)"><path fill="#ff4e16" d="M 293.1875 320.429688 C 283.605469 317.925781 273.5 318.359375 263.929688 321.847656 C 251.195312 326.390625 240.933594 335.605469 235.136719 347.851562 C 229.234375 360.074219 228.652344 373.882812 233.195312 386.617188 L 240.5625 407.472656 C 242.183594 412.066406 243.640625 416.40625 245.203125 420.773438 C 252.277344 441.453125 258.960938 460.417969 272.082031 480.339844 L 289.054688 502.066406 C 295.027344 508.6875 301.851562 515.386719 309.90625 522.457031 C 320.453125 531.589844 331.039062 538.007812 341.257812 544.132812 C 349.054688 548.859375 356.167969 553.222656 362.558594 558.414062 C 382.496094 572.945312 406.507812 581.71875 431.171875 583.445312 C 440.515625 585.027344 450.191406 585.589844 459.804688 585.921875 L 465.0625 584.769531 L 465.085938 584.664062 L 529.417969 571.007812 C 559.820312 564.285156 586.945312 546.519531 605.40625 521.984375 C 610.476562 494.453125 615.347656 470.359375 620 446.765625 L 592.257812 497.160156 C 577.96875 523.03125 553.351562 540.792969 524.628906 546.789062 L 469.503906 558.625 C 457.074219 558.230469 444.511719 560.960938 431.972656 558.039062 C 411.507812 556.019531 381.285156 545.253906 363.820312 527.339844 C 360.863281 525.394531 357.78125 523.53125 354.804688 521.691406 C 345.5625 516.105469 336.003906 510.453125 327.210938 502.789062 C 289.847656 470.128906 281.59375 445.820312 269.914062 412.171875 C 268.457031 407.828125 266.917969 403.359375 265.320312 398.664062 L 257.847656 377.785156 C 255.6875 371.660156 256.039062 364.988281 258.839844 359.0625 C 261.644531 353.136719 266.53125 348.636719 272.65625 346.476562 C 278.910156 344.234375 285.558594 344.6875 291.488281 347.492188 C 297.414062 350.292969 301.804688 355.160156 304.070312 361.308594 L 323.308594 415.417969 C 335.640625 450.078125 372.757812 446.546875 412.109375 442.734375 C 452.546875 438.941406 502.785156 434.105469 551.402344 461.027344 C 558.023438 464.632812 565.84375 462.183594 569.277344 455.851562 C 572.816406 449.539062 570.414062 441.511719 564.101562 437.972656 C 560.789062 436.167969 557.351562 434.449219 554.019531 432.75 C 542.558594 427.339844 531.074219 423.554688 519.828125 420.695312 L 490.195312 415.28125 C 490.21875 415.175781 479.554688 413.640625 461.585938 413.679688 C 442.765625 413.648438 425.128906 415.175781 409.683594 416.632812 C 369.789062 420.4375 353.09375 420.644531 347.960938 406.585938 L 328.804688 352.601562 C 324.28125 339.761719 315.023438 329.710938 302.695312 323.785156 C 299.628906 322.363281 296.492188 321.25 293.1875 320.429688 " fill-opacity="1" fill-rule="nonzero"/></g></g></g><g clip-path="url(#1257eb165f)"><g clip-path="url(#ec07067e3d)"><g clip-path="url(#d5bf314756)"><path fill="#ff4e16" d="M 395.046875 241.289062 C 376.882812 237.695312 357.996094 237.976562 339.925781 242.023438 C 332.148438 244.261719 323.847656 245.410156 314.851562 246.738281 C 302.976562 248.3125 290.742188 250.027344 277.40625 254.332031 C 267.234375 257.582031 258.335938 260.992188 250.246094 264.691406 L 226.023438 278.078125 C 206.027344 291.070312 192.488281 305.890625 177.78125 322.09375 L 177.761719 322.195312 C 174.746094 325.574219 171.605469 329.03125 168.359375 332.46875 L 153.320312 348.707031 C 144.113281 358.585938 139.246094 371.574219 139.789062 385.1875 C 140.253906 398.675781 146.035156 411.242188 156.015625 420.472656 C 165.789062 429.65625 178.804688 434.421875 192.289062 433.957031 C 206.007812 433.433594 218.449219 427.734375 227.65625 417.855469 L 243.820312 400.445312 C 240.277344 391.628906 235.984375 380.253906 233.675781 372.789062 L 208.433594 399.996094 C 204.042969 404.707031 197.886719 407.515625 191.308594 407.730469 C 184.835938 407.96875 178.566406 405.746094 173.773438 401.226562 C 168.957031 396.8125 166.230469 390.785156 166.015625 384.207031 C 165.699219 377.609375 168.023438 371.363281 172.4375 366.542969 L 187.476562 350.304688 C 190.847656 346.789062 194.117188 343.25 197.152344 339.769531 C 221.109375 313.480469 238.277344 294.433594 285.546875 279.164062 C 296.636719 275.679688 305.722656 272.414062 316.46875 271.03125 C 319.964844 270.476562 322.789062 268.476562 326.386719 267.945312 C 347.070312 259.347656 376.976562 263.511719 396.648438 268.191406 L 410.476562 244.941406 C 408.210938 244.34375 397.359375 241.675781 395.046875 241.289062 " fill-opacity="1" fill-rule="nonzero"/></g></g></g><g clip-path="url(#6461238079)"><g clip-path="url(#87d16c50d9)"><g clip-path="url(#42e8fdca34)"><path fill="#ff4e16" d="M 176.496094 484.96875 C 177.246094 485.023438 177.953125 485.285156 178.660156 485.546875 C 180.175781 486.089844 181.472656 487.132812 182.496094 488.441406 L 214.253906 528.925781 C 217.589844 533.128906 216.832031 539.167969 212.628906 542.507812 C 211.699219 543.285156 210.585938 543.914062 209.328125 544.1875 L 143.394531 564.25 C 138.28125 565.761719 132.941406 562.757812 131.433594 557.644531 C 130.761719 555.210938 131.007812 552.546875 132.253906 550.308594 L 166.429688 489.765625 C 168.507812 486.1875 172.523438 484.222656 176.496094 484.96875 Z M 249.902344 370.738281 L 162.410156 439.265625 C 161.355469 440.125 161.503906 439.941406 161.058594 440.496094 C 160.542969 441.367188 159.949219 442.109375 159.039062 442.785156 C 158.699219 443.363281 158.226562 444.023438 157.296875 444.800781 L 157.527344 444.742188 L 74.539062 587.273438 C 71.421875 593.132812 72.226562 599.511719 75.378906 603.5625 C 78.019531 606.964844 82.59375 609.472656 84.925781 609.761719 C 85.550781 609.894531 88.535156 609.667969 90.796875 609.285156 L 91.027344 609.226562 L 250.085938 562.121094 L 250.546875 562.003906 C 252.539062 561.347656 253.3125 561.296875 254.003906 561.117188 C 254.277344 560.851562 254.046875 560.910156 254.425781 560.664062 L 317.886719 510.683594 C 317.65625 510.742188 314.160156 510.3125 314.160156 510.3125 C 314.160156 510.3125 305.589844 500.082031 298.089844 490.957031 L 259.570312 521.175781 C 255.390625 524.410156 249.328125 523.753906 246.09375 519.574219 L 199.058594 461.101562 C 195.699219 457.003906 196.25 450.917969 200.371094 447.453125 C 200.476562 447.476562 200.5 447.371094 200.601562 447.394531 L 258.152344 402.121094 C 254.046875 386.328125 251.875 378.238281 249.902344 370.738281 Z M 528.121094 193.042969 C 529.390625 193.207031 530.59375 193.683594 531.648438 194.347656 C 532.726562 194.90625 533.652344 195.652344 534.328125 196.558594 L 581.113281 256.175781 C 584.453125 260.378906 583.671875 266.523438 579.492188 269.753906 C 579.492188 269.753906 579.46875 269.859375 579.46875 269.859375 L 547.519531 294.859375 C 543.316406 298.195312 537.273438 297.4375 533.914062 293.339844 C 533.9375 293.234375 533.9375 293.234375 533.832031 293.210938 L 487.128906 233.722656 C 483.6875 229.496094 484.445312 223.457031 488.648438 220.117188 C 488.648438 220.117188 488.648438 220.117188 488.773438 220.039062 L 520.644531 194.914062 C 522.835938 193.316406 525.5 192.585938 528.121094 193.042969 Z M 533.300781 153.886719 C 529.46875 153.496094 525.214844 154.539062 521.253906 157.273438 L 504.789062 171.03125 C 504.664062 171.109375 504.664062 171.109375 504.640625 171.214844 L 432.3125 227.992188 L 300.179688 331.40625 C 303.96875 337.558594 310.277344 348.171875 314.917969 357.445312 L 450.410156 251.054688 C 453.558594 248.574219 457.988281 248.226562 461.335938 250.363281 C 462.410156 250.921875 463.214844 251.746094 463.992188 252.675781 L 510.800781 312.1875 C 514.035156 316.371094 513.359375 322.535156 509.28125 325.792969 C 509.15625 325.875 509.15625 325.875 509.15625 325.875 L 369.292969 435.351562 C 382.792969 436.847656 405.730469 435.480469 411.65625 432.734375 C 412.644531 432.183594 414.332031 432.4375 416.550781 433.246094 L 616.710938 275.824219 C 620.640625 272.753906 622.539062 270.007812 623.011719 266.300781 C 623.273438 264.070312 622.09375 259.460938 620.839844 258.210938 C 620.46875 257.914062 620.304688 257.660156 620.035156 257.386719 L 543.191406 159.503906 C 540.632812 156.230469 537.242188 154.300781 533.300781 153.886719 " fill-opacity="1" fill-rule="nonzero"/></g></g></g><g clip-path="url(#041c7c894f)"><g clip-path="url(#d8ff881813)"><g clip-path="url(#25c523f2f1)"><path fill="#ff4e16" d="M 554.152344 301.949219 L 633.25 369.1875 C 638.691406 373.738281 639.34375 381.824219 634.691406 387.242188 C 630.164062 392.578125 622.078125 393.226562 616.640625 388.679688 L 537.539062 321.441406 C 532.203125 316.914062 531.449219 308.808594 536.101562 303.386719 C 540.648438 297.949219 548.835938 297.320312 554.152344 301.949219 " fill-opacity="1" fill-rule="nonzero"/></g></g></g><g clip-path="url(#075191e363)"><g clip-path="url(#a399653ae6)"><g clip-path="url(#48ee9ac54f)"><path fill="#ff4e16" d="M 638.117188 382.972656 L 609.441406 515.886719 C 607.941406 522.855469 601.113281 527.261719 594.144531 525.757812 C 587.28125 524.277344 582.875 517.449219 584.378906 510.480469 L 613.050781 377.566406 C 614.53125 370.703125 621.359375 366.296875 628.222656 367.777344 C 635.191406 369.28125 639.597656 376.109375 638.117188 382.972656 " fill-opacity="1" fill-rule="nonzero"/></g></g></g><g clip-path="url(#81811bfd81)"><g clip-path="url(#74afeeefa3)"><g clip-path="url(#b4b0a180d7)"><path fill="#ff4e16" d="M 643.097656 359.882812 L 712.675781 374.894531 L 672.222656 562.410156 L 602.644531 547.402344 Z M 636.164062 332.484375 C 629.195312 330.980469 622.472656 335.40625 620.96875 342.375 L 575.269531 554.230469 C 573.765625 561.199219 578.066406 568.003906 585.035156 569.507812 L 679.15625 589.808594 C 686.019531 591.292969 692.847656 586.886719 694.351562 579.917969 L 740.050781 368.0625 C 741.554688 361.097656 737.148438 354.269531 730.285156 352.789062 L 636.164062 332.484375 " fill-opacity="1" fill-rule="nonzero"/></g></g></g><g clip-path="url(#113e8743f5)"><g clip-path="url(#b32babd443)"><g clip-path="url(#c9131b57c8)"><path fill="#ff4e16" d="M 74.792969 611.820312 C 74.585938 611.773438 74.480469 611.753906 74.273438 611.707031 C 73.859375 611.617188 73.417969 611.632812 73.0625 611.773438 C 29.140625 615.578125 -18.40625 619.035156 -55.96875 650.875 C -74.636719 666.769531 -88.933594 687.628906 -103.679688 702.515625 C -118.429688 717.402344 -131.476562 725.90625 -150.703125 723.71875 C -169.621094 721.597656 -200.382812 705.273438 -233.746094 686.867188 C -267.210938 668.4375 -304.222656 648.261719 -342.257812 640.929688 C -418.351562 626.363281 -487.464844 666.203125 -553.488281 703.335938 C -553.992188 703.660156 -554.496094 703.988281 -554.796875 704.359375 C -557.601562 706.257812 -559.519531 709.109375 -560.214844 712.332031 C -561.765625 719.507812 -557.09375 726.609375 -549.707031 728.203125 C -547.316406 728.71875 -544.894531 728.589844 -542.566406 727.894531 C -541.773438 727.738281 -540.953125 727.480469 -540.21875 727.09375 C -474.195312 689.964844 -411.15625 655.5625 -347.296875 667.8125 C -315.417969 673.929688 -280.242188 692.511719 -246.960938 710.789062 C -213.808594 729.152344 -182.867188 747.691406 -153.636719 750.949219 C -124.222656 754.355469 -101.5625 739.109375 -84.3125 721.714844 C -67.085938 704.421875 -52.945312 684.289062 -38.296875 671.886719 C -8.851562 646.890625 31.527344 642.867188 75.449219 639.0625 C 76.347656 638.929688 77.144531 638.773438 78.003906 638.308594 C 82.472656 636.769531 85.890625 633.042969 86.898438 628.363281 C 88.492188 620.976562 83.738281 613.75 76.457031 612.179688 C 76.25 612.132812 76.042969 612.089844 75.9375 612.066406 C 75.523438 611.976562 75.210938 611.910156 74.792969 611.820312 " fill-opacity="1" fill-rule="nonzero"/></g></g></g></svg>